{"title":"The Burning Plain*2008*[BluRay][1080p][ENG, POL]","uid":5913110,"size":7983225393,"categoryP":"video","categoryS":"hd___movies","magnet":"?xt=urn:btih:24a070ce95870f07137c03f122c5ab670a14f0db&amp;dn=The+Burning+Plain%2A2008%2A%5BBluRay%5D%5B1080p%5D%5BENG%2C+POL%5D&amp;tr=udp%3A%2F%2Ftracker.openbittorrent.com%3A80&amp;tr=udp%3A%2F%2Fopen.demonii.com%3A1337&amp;tr=udp%3A%2F%2Ftracker.coppersurfer.tk%3A6969&amp;tr=udp%3A%2F%2Fexodus.desync.com%3A6969","seeders":1,"leechers":0,"uploader":"albedo040","files":1,"time":1288123396,"description":"The Burning Plain*2008*[BluRay][1080p][ENG, POL]\n\nGeneral information:\nCountry: USA, Argentina \nRelease: 29 August 2008 (Venice Film Festival)\nGenre: Crime, Drama, Romance \nDirector: Guillermo Arriaga\nScreenplay: Guillermo Arriaga\nOriginal Music: Hans Zimmer\nCinematography by: Robert Elswit\nDuration: 1h 46mn\nLanguage: English, Polish\nSubtitles: English, Polish\nRating: 7.2/10 - 2586 votes\n\nCast:\nCharlize Theron  ...  Sylvia  \nJohn Corbett  ...  John  \nJosÃƒÂ© MarÃƒÂ­a Yazpik  ...  Carlos  \nRobin Tunney  ...  Laura  \nGray Eubank  ...  Lawrence  \nFernanda Romero  ...  Sophie  \nKacie Thomas  ...  Vivi  \nMarty Papazian  ...  Young Man (as Martin Papazian)  \nSean McGrath  ...  Cook  \nJ.D. Pardo  ...  Young Santiago (as JD Pardo)  \nDiego J. Torres  ...  Cristobal (as Diego Torres)  \nJosÃƒÂ© Gallardo Jr.  ...  Xavier  \nRachel Ticotin  ...  Ana  \nRosalia De Aragon  ...  Aunt Rebecca (as Rosalia de Aragon)  \nDebrianna Mansini  ...  Paula  \n\nPlot:\nA trailer is burning in the middle of a plain. The bodies of two adulterous lovers are found. Scenes from both families, before and after the dramatic events, suggest an unusual connection between them. But what is their secret? \n\nSpecifications:\nGeneral\nFormat                           : Matroska\nOverall bit rate                 : 9 970 Kbps\n\nVideo\nFormat                           : AVC\nFormat/Info                      : Advanced Video Codec\nFormat profile                   : &lt;a class=&quot;__cf_email__&quot; href=&quot;/cdn-cgi/l/email-protection&quot; data-cfemail=&quot;ffb7969897bfb3cbd1cf&quot;&gt;[email&amp;#160;protected]&lt;/a&gt;&lt;script cf-hash='f9e31' type=&quot;text/javascript&quot;&gt;\n/* &lt;![CDATA[ */!function(){try{var t=&quot;currentScript&quot;in document?document.currentScript:function(){for(var t=document.getElementsByTagName(&quot;script&quot;),e=t.length;e--;)if(t[e].getAttribute(&quot;cf-hash&quot;))return t[e]}();if(t&amp;&amp;t.previousSibling){var e,r,n,i,c=t.previousSibling,a=c.getAttribute(&quot;data-cfemail&quot;);if(a){for(e=&quot;&quot;,r=parseInt(a.substr(0,2),16),n=2;a.length-n;n+=2)i=parseInt(a.substr(n,2),16)^r,e+=String.fromCharCode(i);e=document.createTextNode(e),c.parentNode.replaceChild(e,c)}}}catch(u){}}();/* ]]&gt; */&lt;/script&gt;\nFormat settings, CABAC           : Yes\nFormat settings, ReFrames        : 3 frames\nFormat settings, GOP             : M=4, N=29\nMuxing mode                      : Container profile=&lt;a class=&quot;__cf_email__&quot; href=&quot;/cdn-cgi/l/email-protection&quot; data-cfemail=&quot;386d565356574f56780c1608&quot;&gt;[email&amp;#160;protected]&lt;/a&gt;&lt;script cf-hash='f9e31' type=&quot;text/javascript&quot;&gt;\n/* &lt;![CDATA[ */!function(){try{var t=&quot;currentScript&quot;in document?document.currentScript:function(){for(var t=document.getElementsByTagName(&quot;script&quot;),e=t.length;e--;)if(t[e].getAttribute(&quot;cf-hash&quot;))return t[e]}();if(t&amp;&amp;t.previousSibling){var e,r,n,i,c=t.previousSibling,a=c.getAttribute(&quot;data-cfemail&quot;);if(a){for(e=&quot;&quot;,r=parseInt(a.substr(0,2),16),n=2;a.length-n;n+=2)i=parseInt(a.substr(n,2),16)^r,e+=String.fromCharCode(i);e=document.createTextNode(e),c.parentNode.replaceChild(e,c)}}}catch(u){}}();/* ]]&gt; */&lt;/script&gt;\nCodec ID                         : V_MPEG4/ISO/AVC\nBit rate                         : 8 890 Kbps\nWidth                            : 1 920 pixels\nHeight                           : 1 080 pixels\nDisplay aspect ratio             : 16:9\nFrame rate                       : 23.976 fps\n\nAudio 1\nFormat                           : AC-3\nFormat/Info                      : Audio Coding 3\nMode extension                   : CM (complete main)\nCodec ID                         : A_AC3\nBit rate mode                    : Constant\nBit rate                         : 640 Kbps\nChannel(s)                       : 6 channels\nChannel positions                : Front: L C R, Side: L R, LFE\nSampling rate                    : 48.0 KHz\nStream size                      : 489 MiB (6%)\nTitle                            : English\n\nAudio 2\nFormat                           : AC-3\nFormat/Info                      : Audio Coding 3\nMode extension                   : CM (complete main)\nCodec ID                         : A_AC3\nBit rate mode                    : Constant\nBit rate                         : 448 Kbps\nChannel(s)                       : 6 channels\nChannel positions                : Front: L C R, Side: L R, LFE\nSampling rate                    : 48.0 KHz\nStream size                      : 342 MiB (4%)\nTitle                            : Polish\nLanguage                         : Polish\n\nText 1\nFormat                           : UTF-8\nCodec ID                         : S_TEXT/UTF8\nCodec ID/Info                    : UTF-8 Plain Text\nTitle                            : English\n\nText 2\nFormat                           : UTF-8\nCodec ID                         : S_TEXT/UTF8\nCodec ID/Info                    : UTF-8 Plain Text\nTitle                            : Polish\nLanguage                         : Polish\n","torrent":{"xt":"urn:btih:24a070ce95870f07137c03f122c5ab670a14f0db","amp;dn":"The+Burning+Plain%2A2008%2A%5BBluRay%5D%5B1080p%5D%5BENG%2C+POL%5D","amp;tr":["udp%3A%2F%2Ftracker.openbittorrent.com%3A80","udp%3A%2F%2Fopen.demonii.com%3A1337","udp%3A%2F%2Ftracker.coppersurfer.tk%3A6969","udp%3A%2F%2Fexodus.desync.com%3A6969"],"infoHash":"24a070ce95870f07137c03f122c5ab670a14f0db","infoHashBuffer":{"type":"Buffer","data":[36,160,112,206,149,135,15,7,19,124,3,241,34,197,171,103,10,20,240,219]},"announce":[],"urlList":[]}}